<svg width="81" height="60" viewBox="0 0 81 60" fill="none" xmlns="http://www.w3.org/2000/svg">
<path d="M31.5595 51.0437V50.5437H31.0595H7.45483C3.7641 50.5437 0.875 47.8958 0.875 44.7496V6.98119C0.875 3.83683 3.7642 1.1871 7.45483 1.1871H73.5452C77.2358 1.1871 80.125 3.83683 80.125 6.98119V44.7496C80.125 47.8958 77.2359 50.5437 73.5452 50.5437H49.9405H49.4405V51.0437V55.2404V55.7404H49.9405H58.8833V58.9371H22.1167V55.7404H31.0595H31.5595V55.2404V51.0437ZM35.2786 55.2404V55.7404H35.7786H45.2214H45.7214V55.2404V51.0437V50.5437H45.2214H35.7786H35.2786V51.0437V55.2404ZM16.8976 13.7772H17.3976V13.2772V9.58052H21.1167V13.2792V13.7792H21.6167H25.8381V16.972H21.6167H21.1167V17.472V21.1687H17.3976V17.472V16.972H16.8976H12.6762V13.7772H16.8976ZM12.674 27.9647C12.674 27.1598 13.4068 26.4105 14.4425 26.3674H14.5369H23.9774C25.062 26.3674 25.8381 27.137 25.8381 27.9667V36.3562C25.8381 37.1859 25.062 37.9555 23.9774 37.9555H14.5369C13.4516 37.9555 12.674 37.1853 12.674 36.3562V27.9647ZM16.3976 34.2588V34.7588H16.8976H21.6167H22.1167V34.2588V30.0621V29.5621H21.6167H16.8976H16.3976V30.0621V34.2588ZM33.9179 11.6779H33.9202V11.1779C33.9202 10.3488 34.6956 9.58052 35.7809 9.58052H45.2214C46.3063 9.58052 47.0821 10.3504 47.0821 11.1779V19.5713C47.0821 20.4002 46.307 21.1687 45.2192 21.1687H35.7809C34.6953 21.1687 33.9179 20.3982 33.9179 19.5713V11.6779ZM37.6393 17.472V17.972H38.1393H42.8607H43.3607V17.472V13.2792V12.7792H42.8607H38.1393V13.2772H37.6393V13.2792V13.7792V17.472ZM33.9179 27.9647C33.9179 27.1598 34.6508 26.4105 35.6865 26.3674H35.7809H45.2192C46.3063 26.3674 47.0821 27.1373 47.0821 27.9667V36.3562C47.0821 37.1859 46.306 37.9555 45.2214 37.9555H35.7809C34.6956 37.9555 33.9179 37.1853 33.9179 36.3562V27.9647ZM37.6393 34.2588V34.7588H38.1393H42.8607H43.3607V34.2588V30.0621V29.5621H42.8607H38.1393H37.6393V30.0621V34.2588ZM58.8833 17.472V17.972H59.3833H64.1024H64.6024V17.472V13.2792V12.7792H64.1024H59.3833V13.2772H58.8833V13.2792V13.7792V17.472ZM7.45483 4.38381C5.93356 4.38381 4.59638 5.49419 4.59638 6.98119V44.7496C4.59638 46.2366 5.93356 47.347 7.45483 47.347H73.5452C75.0661 47.347 76.4036 46.2388 76.4036 44.7496V6.98119C76.4036 5.49419 75.0664 4.38381 73.5452 4.38381H7.45483ZM55.1619 11.1779C55.1619 10.3488 55.9373 9.58052 57.0226 9.58052H66.4631C67.5481 9.58052 68.3238 10.3504 68.3238 11.1779V19.5713C68.3238 20.4004 67.5484 21.1687 66.4631 21.1687H57.0226C55.9376 21.1687 55.1619 20.3988 55.1619 19.5713V11.1779Z" fill="#FFBE17" stroke="black"/>
</svg>
